# xmcd
#
# Track frame offsets:
#	150
#	31455
#	61657
#	101395
#	120992
#	156135
#	188612
#
# Disc length: 2960 seconds
#
# Revision: 1
# Processed by: cddbd v1.4PL0 Copyright (c) Steve Scherf et al.
# Submitted via: audiograbber 1.80.04
#
DISCID=480b8e07
DTITLE=Country Road Band, The - All Star's Medley Vol 2
DYEAR=1900
DGENRE=Country
TTITLE0=Hit The Road
TTITLE1=Legendary Country
TTITLE2=Heart Beat X Romance
TTITLE3=Hall Of Fame
TTITLE4=New Country Party
TTITLE5=Lonesome Cowboy
TTITLE6=Country Memories
EXTD=
EXTT0=
EXTT1=
EXTT2=
EXTT3=
EXTT4=
EXTT5=
EXTT6=
PLAYORDER=
